<svg version="1.1" xmlns="http://www.w3.org/2000/svg" viewBox="0 0 1606.7195952842958 917.55078125" width="3213.4391905685916" height="1835.1015625">
  <!-- svg-source:excalidraw -->
  
  <defs>
    <style>
      @font-face {
        font-family: "Virgil";
        src: url("https://excalidraw.com/Virgil.woff2");
      }
      @font-face {
        font-family: "Cascadia";
        src: url("https://excalidraw.com/Cascadia.woff2");
      }
    </style>
  </defs>
  <rect x="0" y="0" width="1606.7195952842958" height="917.55078125" fill="#ffffff"></rect><g transform="translate(680.33203125 83.9375) rotate(0 73 12.5)"><text x="0" y="18" font-family="Virgil, Segoe UI Emoji" font-size="20px" fill="#000000" text-anchor="start" style="white-space: pre;" direction="ltr">createRender()</text></g><g transform="translate(491.71875 204.0703125) rotate(0 116.5 12.5)"><text x="0" y="18" font-family="Virgil, Segoe UI Emoji" font-size="20px" fill="#000000" text-anchor="start" style="white-space: pre;" direction="ltr">render(vnode, container)</text></g><g transform="translate(791.28515625 276.82421875) rotate(0 233 12.5)"><text x="0" y="18" font-family="Virgil, Segoe UI Emoji" font-size="20px" fill="#000000" text-anchor="start" style="white-space: pre;" direction="ltr">patch(old_vnode, new_vnode, container, anchor)</text></g><g transform="translate(366.39453125 553.12109375) rotate(0 175.5 39.5)"><text x="0" y="18.333333333333332" font-family="Virgil, Segoe UI Emoji" font-size="20px" fill="#000000" text-anchor="start" style="white-space: pre;" direction="ltr">mountElement(new_vnode, container)</text><text x="0" y="44.666666666666664" font-family="Virgil, Segoe UI Emoji" font-size="20px" fill="#000000" text-anchor="start" style="white-space: pre;" direction="ltr">children处理</text><text x="0" y="71" font-family="Virgil, Segoe UI Emoji" font-size="20px" fill="#000000" text-anchor="start" style="white-space: pre;" direction="ltr">patch new_vnode.props</text></g><g transform="translate(205.30859375 10) rotate(0 146.5 100)"><text x="0" y="18" font-family="Virgil, Segoe UI Emoji" font-size="20px" fill="#000000" text-anchor="start" style="white-space: pre;" direction="ltr">options={</text><text x="0" y="43" font-family="Virgil, Segoe UI Emoji" font-size="20px" fill="#000000" text-anchor="start" style="white-space: pre;" direction="ltr">    createElement(tag),</text><text x="0" y="68" font-family="Virgil, Segoe UI Emoji" font-size="20px" fill="#000000" text-anchor="start" style="white-space: pre;" direction="ltr">    insert(el, parent, anchor),</text><text x="0" y="93" font-family="Virgil, Segoe UI Emoji" font-size="20px" fill="#000000" text-anchor="start" style="white-space: pre;" direction="ltr">    setElementText(el, text),</text><text x="0" y="118" font-family="Virgil, Segoe UI Emoji" font-size="20px" fill="#000000" text-anchor="start" style="white-space: pre;" direction="ltr">    setText,</text><text x="0" y="143" font-family="Virgil, Segoe UI Emoji" font-size="20px" fill="#000000" text-anchor="start" style="white-space: pre;" direction="ltr">    createText</text><text x="0" y="168" font-family="Virgil, Segoe UI Emoji" font-size="20px" fill="#000000" text-anchor="start" style="white-space: pre;" direction="ltr">    </text><text x="0" y="193" font-family="Virgil, Segoe UI Emoji" font-size="20px" fill="#000000" text-anchor="start" style="white-space: pre;" direction="ltr">}</text></g><g stroke-linecap="round"><g transform="translate(518.35546875 104.73601271004767) rotate(0 76.31609131097792 1.4445790945558628)"><path d="M-1.12 -0.84 C24.65 -0.25, 127.77 2.05, 153.75 2.68 M0.5 1.33 C26.19 2.12, 127.14 3.3, 152.81 3.73" stroke="#000000" stroke-width="1" fill="none"></path></g><g transform="translate(518.35546875 104.73601271004767) rotate(0 76.31609131097792 1.4445790945558628)"><path d="M123.08 13.62 C129.41 13.33, 136.29 10.01, 152.63 3.86 M124.56 13.4 C129.85 11.34, 135.87 9.32, 153.09 3.63" stroke="#000000" stroke-width="1" fill="none"></path></g><g transform="translate(518.35546875 104.73601271004767) rotate(0 76.31609131097792 1.4445790945558628)"><path d="M123.37 -6.9 C129.49 -2.54, 136.3 -1.22, 152.63 3.86 M124.85 -7.12 C130.04 -4.98, 135.99 -2.81, 153.09 3.63" stroke="#000000" stroke-width="1" fill="none"></path></g></g><g stroke-linecap="round"><g transform="translate(694.5011914700785 121.22265625) rotate(0 -39.70334534197963 35.19281255375128)"><path d="M-0.96 -0.33 C-14.22 11.54, -67.21 59.86, -80.14 71.94 M0.73 -1.55 C-12.11 9.93, -64.7 58.27, -77.99 70.25" stroke="#000000" stroke-width="1" fill="none"></path></g><g transform="translate(694.5011914700785 121.22265625) rotate(0 -39.70334534197963 35.19281255375128)"><path d="M-64.62 41.89 C-66.02 51.09, -69.19 58.8, -78.97 70.3 M-63.64 44.39 C-68.02 48.39, -69.26 54.21, -78.8 70.36" stroke="#000000" stroke-width="1" fill="none"></path></g><g transform="translate(694.5011914700785 121.22265625) rotate(0 -39.70334534197963 35.19281255375128)"><path d="M-50.8 57.06 C-55.73 62.36, -62.35 66.29, -78.97 70.3 M-49.82 59.56 C-56.92 60.42, -60.97 63.16, -78.8 70.36" stroke="#000000" stroke-width="1" fill="none"></path></g></g><g stroke-linecap="round"><g transform="translate(730.4322297192443 235.5321037709026) rotate(0 101.83223745658626 18.813312596566618)"><path d="M-0.46 1.18 C33.65 6.98, 170.2 29.65, 204.13 35.42 M1.49 0.75 C35.52 6.7, 169.27 30.8, 203.29 36.87" stroke="#000000" stroke-width="1" fill="none"></path></g><g transform="translate(730.4322297192443 235.5321037709026) rotate(0 101.83223745658626 18.813312596566618)"><path d="M175.7 42.34 C180.91 39.47, 188.98 37.89, 204.1 38.47 M174.12 42.32 C182.08 39.92, 189.69 38.35, 203.56 37.37" stroke="#000000" stroke-width="1" fill="none"></path></g><g transform="translate(730.4322297192443 235.5321037709026) rotate(0 101.83223745658626 18.813312596566618)"><path d="M179.32 22.14 C183.72 24.37, 190.87 27.89, 204.1 38.47 M177.75 22.12 C184.56 25.17, 191.2 29.05, 203.56 37.37" stroke="#000000" stroke-width="1" fill="none"></path></g></g><g transform="translate(793.9691159439591 218.98747134208082) rotate(0.21825368585921295 38.5 12.5)"><text x="0" y="18" font-family="Virgil, Segoe UI Emoji" font-size="19.565804601893973px" fill="#000000" text-anchor="start" style="white-space: pre;" direction="ltr">if vnode</text></g><g stroke-linecap="round"><g transform="translate(479.64908291790016 220.6172898652037) rotate(0 -73.96664680314623 18.526097428472468)"><path d="M-0.96 1.11 C-25.66 7.08, -123.23 29.09, -147.6 34.87 M0.73 0.64 C-24.2 6.91, -123.9 30.86, -148.66 36.41" stroke="#000000" stroke-width="1" fill="none"></path></g><g transform="translate(479.64908291790016 220.6172898652037) rotate(0 -73.96664680314623 18.526097428472468)"><path d="M-121.7 19.64 C-132.45 25.89, -139.69 31.37, -150.48 36.79 M-124.42 19.83 C-130.25 24.19, -135.01 27.5, -149.64 36.73" stroke="#000000" stroke-width="1" fill="none"></path></g><g transform="translate(479.64908291790016 220.6172898652037) rotate(0 -73.96664680314623 18.526097428472468)"><path d="M-117.03 39.62 C-129.25 38.84, -138.13 37.34, -150.48 36.79 M-119.75 39.81 C-126.54 39.49, -132.39 38.14, -149.64 36.73" stroke="#000000" stroke-width="1" fill="none"></path></g></g><g transform="translate(380.84765625 226.1953125) rotate(0 19.5 12.5)"><text x="0" y="18" font-family="Virgil, Segoe UI Emoji" font-size="20px" fill="#000000" text-anchor="start" style="white-space: pre;" direction="ltr">else</text></g><g transform="translate(272.68359375 270.80078125) rotate(0 39 12.5)"><text x="0" y="18" font-family="Virgil, Segoe UI Emoji" font-size="20px" fill="#000000" text-anchor="start" style="white-space: pre;" direction="ltr">unmount</text></g><g stroke-linecap="round"><g transform="translate(742.2869444001415 483.4648086556422) rotate(0 -126.46299813644151 25.759725552475913)"><path d="M0.94 -0.49 C-41.25 8.22, -210.87 44.35, -253.43 53.32 M-0.02 -1.8 C-42.26 7.14, -211.35 42.93, -253.87 51.82" stroke="#000000" stroke-width="1" fill="none"></path></g><g transform="translate(742.2869444001415 483.4648086556422) rotate(0 -126.46299813644151 25.759725552475913)"><path d="M-229.22 37.58 C-233.28 40.55, -240.32 45.16, -253.03 50.7 M-229.08 35.71 C-236.39 41.08, -244.11 45.82, -253.68 52.47" stroke="#000000" stroke-width="1" fill="none"></path></g><g transform="translate(742.2869444001415 483.4648086556422) rotate(0 -126.46299813644151 25.759725552475913)"><path d="M-224.99 57.66 C-230.38 55.14, -238.59 54.22, -253.03 50.7 M-224.85 55.79 C-233.44 54.83, -242.49 53.24, -253.68 52.47" stroke="#000000" stroke-width="1" fill="none"></path></g></g><g transform="translate(557.89453125 470.3671875) rotate(0 64.5 12.5)"><text x="0" y="18" font-family="Virgil, Segoe UI Emoji" font-size="20px" fill="#000000" text-anchor="start" style="white-space: pre;" direction="ltr">if !old_vnode</text></g><g stroke-linecap="round"><g transform="translate(434.86661991592314 538.046875) rotate(0 160.37687071393336 -125.7341223120689)"><path d="M-0.06 -0.06 C12.38 -31.15, 43.75 -145.52, 73.57 -185.6 C103.39 -225.67, 137.51 -229.52, 178.86 -240.49 C220.21 -251.46, 297.93 -249.63, 321.69 -251.4 M-1.55 -1.14 C10.82 -32.65, 42.67 -147.02, 72.62 -187.26 C102.57 -227.5, 136.53 -231.99, 178.15 -242.57 C219.76 -253.16, 298.63 -249.35, 322.3 -250.76" stroke="#000000" stroke-width="1" fill="none"></path></g><g transform="translate(434.86661991592314 538.046875) rotate(0 160.37687071393336 -125.7341223120689)"><path d="M294.13 -240.18 C301.56 -242.24, 306.88 -243.51, 320.83 -250.07 M294.22 -239.37 C300.53 -243.72, 308.98 -246.04, 323.2 -249.95" stroke="#000000" stroke-width="1" fill="none"></path></g><g transform="translate(434.86661991592314 538.046875) rotate(0 160.37687071393336 -125.7341223120689)"><path d="M293.89 -260.7 C301.53 -258.41, 306.91 -255.33, 320.83 -250.07 M293.98 -259.89 C300.32 -259.13, 308.83 -256.34, 323.2 -249.95" stroke="#000000" stroke-width="1" fill="none"></path></g></g><g transform="translate(955.24609375 342.1796875) rotate(0 202 30)"><text x="0" y="14" font-family="Virgil, Segoe UI Emoji" font-size="16px" fill="#000000" text-anchor="start" style="white-space: pre;" direction="ltr">if old_vnode &amp;&amp; old_vode.type !== new_vnode.type</text><text x="0" y="34" font-family="Virgil, Segoe UI Emoji" font-size="16px" fill="#000000" text-anchor="start" style="white-space: pre;" direction="ltr"> unmount(old_vnode)</text><text x="0" y="54" font-family="Virgil, Segoe UI Emoji" font-size="16px" fill="#000000" text-anchor="start" style="white-space: pre;" direction="ltr">old_vnode = null</text></g><g stroke-linecap="round"><g transform="translate(1014.87018804021 309.4453125) rotate(0 10.43511013217335 8.825735753583729)"><path d="M-0.5 0.47 C3.01 3.41, 17.84 15.38, 21.37 17.98 M1.44 -0.33 C4.85 2.24, 17.88 13.39, 21.01 16.24" stroke="#000000" stroke-width="1" fill="none"></path></g><g transform="translate(1014.87018804021 309.4453125) rotate(0 10.43511013217335 8.825735753583729)"><path d="M9.13 12.65 C13.49 13.54, 15.43 14.57, 19.95 17.13 M8.84 11.85 C10.94 12.5, 14.95 14.24, 21.09 15.7" stroke="#000000" stroke-width="1" fill="none"></path></g><g transform="translate(1014.87018804021 309.4453125) rotate(0 10.43511013217335 8.825735753583729)"><path d="M15.13 5.8 C17.54 8.92, 17.52 12.19, 19.95 17.13 M14.84 5.01 C15.5 7.21, 18.1 10.56, 21.09 15.7" stroke="#000000" stroke-width="1" fill="none"></path></g></g><g transform="translate(868.546875 532.79296875) rotate(0 50 10)"><text x="0" y="14" font-family="Virgil, Segoe UI Emoji" font-size="15.374999999999996px" fill="#000000" text-anchor="start" style="white-space: pre;" direction="ltr">patchElement</text></g><g transform="translate(736.140625 451.015625) rotate(0 66 10)"><text x="0" y="14" font-family="Virgil, Segoe UI Emoji" font-size="16px" fill="#000000" text-anchor="start" style="white-space: pre;" direction="ltr">type === 'string'</text></g><g stroke-linecap="round"><g transform="translate(958.271427064002 414.4375) rotate(0 -53.05269816984372 14.508830434191054)"><path d="M0.18 0.86 C-17.28 5.51, -87.94 24.16, -105.71 28.75 M-1.19 0.27 C-18.66 4.45, -88.62 21.87, -106.28 26.76" stroke="#000000" stroke-width="1" fill="none"></path></g><g transform="translate(958.271427064002 414.4375) rotate(0 -53.05269816984372 14.508830434191054)"><path d="M-80.15 10.91 C-86.48 13.52, -92.58 15.99, -107.53 27.08 M-80.73 10.15 C-90.28 14.8, -96.91 21.14, -106.03 26.01" stroke="#000000" stroke-width="1" fill="none"></path></g><g transform="translate(958.271427064002 414.4375) rotate(0 -53.05269816984372 14.508830434191054)"><path d="M-74.98 30.77 C-82.6 29, -89.84 27.08, -107.53 27.08 M-75.56 30.01 C-86.68 28.15, -94.99 28.03, -106.03 26.01" stroke="#000000" stroke-width="1" fill="none"></path></g></g><g stroke-linecap="round"><g transform="translate(852.3991875342539 483.4765625) rotate(0 18.163128915239383 19.775928145754108)"><path d="M0.9 -0.4 C7.08 6.46, 30.73 34.4, 36.41 41.2 M-0.09 -1.65 C6.09 4.85, 30.33 32.2, 36.02 39.43" stroke="#000000" stroke-width="1" fill="none"></path></g><g transform="translate(852.3991875342539 483.4765625) rotate(0 18.163128915239383 19.775928145754108)"><path d="M12.02 27.81 C19.44 28.53, 23.8 33.66, 35.83 38.75 M13.04 25.36 C21.03 31.39, 30.17 36.43, 35.29 39.89" stroke="#000000" stroke-width="1" fill="none"></path></g><g transform="translate(852.3991875342539 483.4765625) rotate(0 18.163128915239383 19.775928145754108)"><path d="M26.08 15.94 C30.09 19.64, 31.04 27.66, 35.83 38.75 M27.1 13.49 C29.87 23.88, 33.76 33.35, 35.29 39.89" stroke="#000000" stroke-width="1" fill="none"></path></g></g><g transform="translate(1160.3125 447.1953125) rotate(0 56 10)"><text x="0" y="14" font-family="Virgil, Segoe UI Emoji" font-size="16px" fill="#000000" text-anchor="start" style="white-space: pre;" direction="ltr">type=== Text</text></g><g stroke-linecap="round"><g transform="translate(1109.207524139864 414.2421875) rotate(0 21.120274857951244 15.552935991159416)"><path d="M0.87 0.67 C8.08 5.76, 35.37 26.26, 42.38 31.14 M-0.14 -0.03 C6.97 4.68, 34.18 24.31, 41.24 29.49" stroke="#000000" stroke-width="1" fill="none"></path></g><g transform="translate(1109.207524139864 414.2421875) rotate(0 21.120274857951244 15.552935991159416)"><path d="M17.2 21.71 C23.26 24.05, 26.84 26.55, 41.43 27.68 M16.08 22.12 C21.24 24.19, 27.92 26.91, 42.06 29.76" stroke="#000000" stroke-width="1" fill="none"></path></g><g transform="translate(1109.207524139864 414.2421875) rotate(0 21.120274857951244 15.552935991159416)"><path d="M27.71 7.22 C31.5 12.87, 32.73 18.6, 41.43 27.68 M26.6 7.63 C29.29 13.05, 33.47 19.2, 42.06 29.76" stroke="#000000" stroke-width="1" fill="none"></path></g></g><g transform="translate(10 272.73046875) rotate(0 68.5 10)"><text x="0" y="14" font-family="Virgil, Segoe UI Emoji" font-size="16px" fill="#000000" text-anchor="start" style="white-space: pre;" direction="ltr">addEventListener</text></g><g stroke-linecap="round"><g transform="translate(111.93735594141859 262.65625) rotate(0 87.05353888771532 -35.29327234625816)"><path d="M1 0.52 C30.07 -11.52, 145.11 -59.11, 174.04 -71.11 M0.07 -0.25 C29.06 -11.61, 144.29 -58.04, 173.34 -69.75" stroke="#000000" stroke-width="1" fill="none"></path></g><g transform="translate(111.93735594141859 262.65625) rotate(0 87.05353888771532 -35.29327234625816)"><path d="M151.89 -48.91 C156.24 -53.56, 161.62 -59.27, 172.76 -71.11 M150.64 -49.86 C156.13 -54.57, 161.9 -59.77, 174.15 -69.3" stroke="#000000" stroke-width="1" fill="none"></path></g><g transform="translate(111.93735594141859 262.65625) rotate(0 87.05353888771532 -35.29327234625816)"><path d="M144.22 -67.95 C150.8 -67.55, 158.24 -68.17, 172.76 -71.11 M142.97 -68.9 C150.26 -69.25, 157.8 -70.07, 174.15 -69.3" stroke="#000000" stroke-width="1" fill="none"></path></g></g><g transform="translate(693.48046875 719.203125) rotate(0 281.5 33)"><text x="0" y="16" font-family="Virgil, Segoe UI Emoji" font-size="16px" fill="#000000" text-anchor="start" style="white-space: pre;" direction="ltr">if 新节点是文本节点，</text><text x="0" y="38" font-family="Virgil, Segoe UI Emoji" font-size="16px" fill="#000000" text-anchor="start" style="white-space: pre;" direction="ltr">旧节点是array，则逐个unmout，再setElementText(container, new.children)</text><text x="0" y="60" font-family="Virgil, Segoe UI Emoji" font-size="16px" fill="#000000" text-anchor="start" style="white-space: pre;" direction="ltr"></text></g><g transform="translate(693.48046875 806.0390625) rotate(0 77.5 11.5)"><text x="0" y="17" font-family="Virgil, Segoe UI Emoji" font-size="16px" fill="#000000" text-anchor="start" style="white-space: pre;" direction="ltr">else if 新的一组节点</text></g><g transform="translate(878.3046875 777.1796875) rotate(0 102.5 11.5)"><text x="0" y="17" font-family="Virgil, Segoe UI Emoji" font-size="16px" fill="#000000" text-anchor="start" style="white-space: pre;" direction="ltr">旧节点也是数组，则diff算法</text></g><g transform="translate(879.015625 808.1796875) rotate(0 180.5 23)"><text x="0" y="17" font-family="Virgil, Segoe UI Emoji" font-size="16px" fill="#000000" text-anchor="start" style="white-space: pre;" direction="ltr">旧节点非数组，则setElementText(container, ''),</text><text x="0" y="40" font-family="Virgil, Segoe UI Emoji" font-size="16px" fill="#000000" text-anchor="start" style="white-space: pre;" direction="ltr">再做个mount新数组</text></g><g transform="translate(693.48046875 881.8046875) rotate(0 68 11.5)"><text x="0" y="17" font-family="Virgil, Segoe UI Emoji" font-size="16px" fill="#000000" text-anchor="start" style="white-space: pre;" direction="ltr">else 即新节点是无</text></g><g transform="translate(867.37890625 884.55078125) rotate(0 179.5 11.5)"><text x="0" y="17" font-family="Virgil, Segoe UI Emoji" font-size="16px" fill="#000000" text-anchor="start" style="white-space: pre;" direction="ltr">旧节点是array，则逐个unmount。是文本则设为‘’</text></g><g transform="translate(760.15234375 608.765625) rotate(0 54.5 10)"><text x="0" y="14" font-family="Virgil, Segoe UI Emoji" font-size="16px" fill="#000000" text-anchor="start" style="white-space: pre;" direction="ltr">patch children</text></g><g stroke-linecap="round"><g transform="translate(802.0717687003746 641.1484375) rotate(0 -3.4484360315526033 36.41454139019828)"><path d="M1 -0.72 C-0.23 11.48, -6.69 60.13, -7.9 72.54 M0.06 1.52 C-0.77 13.89, -4.64 61.27, -5.76 73.54" stroke="#000000" stroke-width="1" fill="none"></path></g><g transform="translate(802.0717687003746 641.1484375) rotate(0 -3.4484360315526033 36.41454139019828)"><path d="M-14.77 42.74 C-13.41 52.92, -9.41 58.89, -6.14 71.74 M-12.91 43.88 C-11.04 54.68, -8.64 65.74, -5.18 73.89" stroke="#000000" stroke-width="1" fill="none"></path></g><g transform="translate(802.0717687003746 641.1484375) rotate(0 -3.4484360315526033 36.41454139019828)"><path d="M5.68 44.49 C1.79 54.4, 0.54 59.91, -6.14 71.74 M7.53 45.63 C2.27 55.93, -2.47 66.38, -5.18 73.89" stroke="#000000" stroke-width="1" fill="none"></path></g></g><g transform="translate(997.125 601.3515625) rotate(0 46.5 10)"><text x="0" y="14" font-family="Virgil, Segoe UI Emoji" font-size="16px" fill="#000000" text-anchor="start" style="white-space: pre;" direction="ltr">patch props</text></g><g stroke-linecap="round"><g transform="translate(876.552949889646 555.86328125) rotate(0 -32.03394330614282 20.12228015165317)"><path d="M0.14 1.11 C-10.45 7.63, -52.98 33.09, -63.74 39.6 M-1.25 0.65 C-11.89 6.77, -53.57 31.52, -64.21 37.82" stroke="#000000" stroke-width="1" fill="none"></path></g><g transform="translate(876.552949889646 555.86328125) rotate(0 -32.03394330614282 20.12228015165317)"><path d="M-43.33 16.14 C-49.34 21.53, -53.79 29.27, -65.19 37.72 M-44.87 14.32 C-50.7 21.49, -56.56 26.99, -64.02 37.65" stroke="#000000" stroke-width="1" fill="none"></path></g><g transform="translate(876.552949889646 555.86328125) rotate(0 -32.03394330614282 20.12228015165317)"><path d="M-32.87 33.79 C-41.9 34.23, -49.29 37, -65.19 37.72 M-34.4 31.97 C-43.04 34.05, -51.88 34.53, -64.02 37.65" stroke="#000000" stroke-width="1" fill="none"></path></g></g><g stroke-linecap="round"><g transform="translate(942.8607274639412 559.453125) rotate(0 56.51459003924117 20.525000778203832)"><path d="M1.06 1.08 C19.93 7.66, 94.14 32.47, 112.88 38.99 M0.15 0.6 C18.91 7.41, 93.17 34.15, 111.99 40.45" stroke="#000000" stroke-width="1" fill="none"></path></g><g transform="translate(942.8607274639412 559.453125) rotate(0 56.51459003924117 20.525000778203832)"><path d="M83.79 41.01 C89.76 41.62, 99.77 41.57, 113.56 41.21 M81.91 40.72 C92.06 40.82, 100.53 41.13, 111.06 40.68" stroke="#000000" stroke-width="1" fill="none"></path></g><g transform="translate(942.8607274639412 559.453125) rotate(0 56.51459003924117 20.525000778203832)"><path d="M90.55 21.64 C94.63 27.49, 102.84 32.61, 113.56 41.21 M88.67 21.35 C96.6 27.3, 103.01 33.49, 111.06 40.68" stroke="#000000" stroke-width="1" fill="none"></path></g></g><g transform="translate(1324.0234375 437.80859375) rotate(0 75 10)"><text x="0" y="14" font-family="Virgil, Segoe UI Emoji" font-size="16px" fill="#000000" text-anchor="start" style="white-space: pre;" direction="ltr">type === Fragment</text></g><g stroke-linecap="round"><g transform="translate(1194.4411037216732 411.33203125) rotate(0 67.40396202175737 10.259355962276459)"><path d="M-0.93 -1.18 C21.8 2.35, 112.85 17.97, 135.74 21.7 M0.78 0.81 C23.37 3.98, 112.02 17.07, 134.51 20.13" stroke="#000000" stroke-width="1" fill="none"></path></g><g transform="translate(1194.4411037216732 411.33203125) rotate(0 67.40396202175737 10.259355962276459)"><path d="M103.19 25.42 C114.05 25.28, 120.43 24.7, 134.11 19.29 M105.63 26.23 C111.59 24.68, 118.25 24.51, 134.6 20.09" stroke="#000000" stroke-width="1" fill="none"></path></g><g transform="translate(1194.4411037216732 411.33203125) rotate(0 67.40396202175737 10.259355962276459)"><path d="M106.08 5.1 C116.33 9.9, 122 14.29, 134.11 19.29 M108.52 5.92 C113.74 9.15, 119.71 13.78, 134.6 20.09" stroke="#000000" stroke-width="1" fill="none"></path></g></g><g transform="translate(239.33203125 164.56640625) rotate(0 138.5 10)"><text x="0" y="14" font-family="Virgil, Segoe UI Emoji" font-size="16px" fill="#000000" text-anchor="start" style="white-space: pre;" direction="ltr">patchProps(el, key, preVal, nextVal)</text></g><g transform="translate(88.63671875 352.9765625) rotate(0 150 34.5)"><text x="0" y="17" font-family="Virgil, Segoe UI Emoji" font-size="16px" fill="#000000" text-anchor="start" style="white-space: pre;" direction="ltr">使用innerHTMl有缺陷，因为它无法</text><text x="0" y="40" font-family="Virgil, Segoe UI Emoji" font-size="16px" fill="#000000" text-anchor="start" style="white-space: pre;" direction="ltr">移除事件，且还需要调用生命周期函数，</text><text x="0" y="63" font-family="Virgil, Segoe UI Emoji" font-size="16px" fill="#000000" text-anchor="start" style="white-space: pre;" direction="ltr">自定义指令，所以需要通过vnode逐个卸载</text></g><g stroke-linecap="round"><g transform="translate(241.58082279218985 341.453125) rotate(0 24.496723300214057 -21.876796430582203)"><path d="M-0.34 -1.05 C7.32 -8.4, 39.16 -35.79, 47.06 -43.11 M1.68 1.01 C9.62 -6.75, 41.36 -37.24, 49.34 -44.77" stroke="#000000" stroke-width="1" fill="none"></path></g><g transform="translate(241.58082279218985 341.453125) rotate(0 24.496723300214057 -21.876796430582203)"><path d="M34.27 -19.27 C42.51 -29.73, 44.63 -40.17, 48.39 -44.74 M36.15 -17.67 C39.76 -23.91, 41.83 -31.12, 48.86 -44.31" stroke="#000000" stroke-width="1" fill="none"></path></g><g transform="translate(241.58082279218985 341.453125) rotate(0 24.496723300214057 -21.876796430582203)"><path d="M20.11 -34.12 C34.02 -38.71, 41.7 -43.34, 48.39 -44.74 M21.99 -32.53 C28.83 -35.28, 34.18 -39.06, 48.86 -44.31" stroke="#000000" stroke-width="1" fill="none"></path></g></g><g transform="translate(1009.28125 458.63671875) rotate(0 61.5 10)"><text x="0" y="14" font-family="Virgil, Segoe UI Emoji" font-size="16px" fill="#000000" text-anchor="start" style="white-space: pre;" direction="ltr">type=== Object</text></g><g stroke-linecap="round"><g transform="translate(1029.3182474657517 415.07421875) rotate(0 0.544656912681603 18.370993553763242)"><path d="M0.17 0.23 C0.49 6.24, 2.09 30.32, 2.29 36.33 M-1.2 -0.7 C-0.99 5.42, 1.5 31.12, 1.81 37.44" stroke="#000000" stroke-width="1" fill="none"></path></g><g transform="translate(1029.3182474657517 415.07421875) rotate(0 0.544656912681603 18.370993553763242)"><path d="M-5.49 21.85 C-4.56 26.03, -2.06 32.3, 1.46 37.11 M-6.17 20.1 C-3.22 23.8, -1.95 28.8, 2.05 38.08" stroke="#000000" stroke-width="1" fill="none"></path></g><g transform="translate(1029.3182474657517 415.07421875) rotate(0 0.544656912681603 18.370993553763242)"><path d="M7.19 20.9 C3.95 25.41, 2.27 31.99, 1.46 37.11 M6.51 19.14 C6.34 23.19, 4.47 28.43, 2.05 38.08" stroke="#000000" stroke-width="1" fill="none"></path></g></g><g transform="translate(1296.7195952842958 219.2760528743267) rotate(0 150 12.5)"><text x="0" y="18" font-family="Virgil, Segoe UI Emoji" font-size="20px" fill="#000000" text-anchor="start" style="white-space: pre;" direction="ltr">parent.insertBefore(el, anchor)</text></g><g stroke-linecap="round"><g transform="translate(1283.8920507262476 245.94137725732287) rotate(0 -26.89249482053799 16.233377186316062)"><path d="M-0.19 0.89 C-9.12 6.22, -43.76 26.08, -52.49 31.05 M-1.76 0.31 C-10.95 5.86, -44.95 26.97, -53.59 32.16" stroke="#000000" stroke-width="1" fill="none"></path></g><g transform="translate(1283.8920507262476 245.94137725732287) rotate(0 -26.89249482053799 16.233377186316062)"><path d="M-33.41 8.22 C-43.67 17.07, -51.47 26.99, -51.69 32.36 M-35.01 8.72 C-41.13 15.76, -46.11 23.76, -54.58 32.31" stroke="#000000" stroke-width="1" fill="none"></path></g><g transform="translate(1283.8920507262476 245.94137725732287) rotate(0 -26.89249482053799 16.233377186316062)"><path d="M-22.71 25.73 C-36.97 27.79, -48.91 30.93, -51.69 32.36 M-24.3 26.23 C-33.79 27.91, -42.08 30.5, -54.58 32.31" stroke="#000000" stroke-width="1" fill="none"></path></g></g></svg>