<svg version="1.1" xmlns="http://www.w3.org/2000/svg" viewBox="0 0 618.4765625 119" width="618.4765625" height="119">
  <!-- svg-source:excalidraw -->
  
  <defs>
    <style>
      @font-face {
        font-family: "Virgil";
        src: url("https://excalidraw.com/Virgil.woff2");
      }
      @font-face {
        font-family: "Cascadia";
        src: url("https://excalidraw.com/Cascadia.woff2");
      }
    </style>
  </defs>
  <rect x="0" y="0" width="618.4765625" height="119" fill="#ffffff"></rect><g transform="translate(12.4765625 10) rotate(0 80.5 11.5)"><text x="0" y="17" font-family="Virgil, Segoe UI Emoji" font-size="16px" fill="#000000" text-anchor="start" style="white-space: pre;" direction="ltr">proxyRefs: 自动脱ref</text></g><g transform="translate(10 75.04296875) rotate(0 53 10)"><text x="0" y="14" font-family="Virgil, Segoe UI Emoji" font-size="16px" fill="#000000" text-anchor="start" style="white-space: pre;" direction="ltr">proxy(target)</text></g><g transform="translate(172.4765625 50) rotate(0 13.5 10)"><text x="0" y="14" font-family="Virgil, Segoe UI Emoji" font-size="16px" fill="#000000" text-anchor="start" style="white-space: pre;" direction="ltr">get</text></g><g transform="translate(249.4765625 51) rotate(0 146 10)"><text x="0" y="14" font-family="Virgil, Segoe UI Emoji" font-size="16px" fill="#000000" text-anchor="start" style="white-space: pre;" direction="ltr">value._v_isRef ? value.value : value</text></g><g transform="translate(182.4765625 86) rotate(0 14 10)"><text x="0" y="14" font-family="Virgil, Segoe UI Emoji" font-size="16px" fill="#000000" text-anchor="start" style="white-space: pre;" direction="ltr">set</text></g><g transform="translate(259.4765625 89) rotate(0 174.5 10)"><text x="0" y="14" font-family="Virgil, Segoe UI Emoji" font-size="16px" fill="#000000" text-anchor="start" style="white-space: pre;" direction="ltr">if(value._v_isRef) {value.value = newvalue}</text></g><g stroke-linecap="round"><g transform="translate(78.15808498466657 35.78125) rotate(0 -1.9308227663968012 17.153793573379545)"><path d="M0.02 -1.19 C-0.52 4.69, -3.27 29.42, -3.88 35.5 M-1.43 0.8 C-1.53 6.36, -1.04 28.52, -1.59 33.96" stroke="#000000" stroke-width="1" fill="none"></path></g><g transform="translate(78.15808498466657 35.78125) rotate(0 -1.9308227663968012 17.153793573379545)"><path d="M-8.71 16.43 C-4.04 20.79, -2.97 25.27, -1.14 34.75 M-6.96 18.39 C-6.19 22.29, -4.37 27.35, -0.98 34.37" stroke="#000000" stroke-width="1" fill="none"></path></g><g transform="translate(78.15808498466657 35.78125) rotate(0 -1.9308227663968012 17.153793573379545)"><path d="M3.09 16.79 C4.86 21.06, 3.01 25.45, -1.14 34.75 M4.84 18.75 C2.09 22.47, 0.38 27.43, -0.98 34.37" stroke="#000000" stroke-width="1" fill="none"></path></g></g><g stroke-linecap="round"><g transform="translate(126.265625 78.30859375) rotate(0 18.306403112411502 -5.907436584723172)"><path d="M-0.57 -0.16 C5.45 -1.65, 31.01 -8.16, 37.19 -9.81 M1.32 -1.29 C7.07 -3.07, 29.8 -10.44, 36.05 -11.65" stroke="#000000" stroke-width="1" fill="none"></path></g><g transform="translate(126.265625 78.30859375) rotate(0 18.306403112411502 -5.907436584723172)"><path d="M19.81 -1.1 C27.2 -6.46, 33 -7.82, 34.8 -11.25 M21.03 0.21 C25.75 -5.13, 31.7 -9.51, 36.37 -12.09" stroke="#000000" stroke-width="1" fill="none"></path></g><g transform="translate(126.265625 78.30859375) rotate(0 18.306403112411502 -5.907436584723172)"><path d="M16.39 -13.97 C25.02 -14.32, 32.14 -10.7, 34.8 -11.25 M17.61 -12.66 C23.73 -13.16, 30.98 -12.68, 36.37 -12.09" stroke="#000000" stroke-width="1" fill="none"></path></g></g><g stroke-linecap="round"><g transform="translate(128.33203125 92.96875) rotate(0 23.88000617932994 0.9945702052768297)"><path d="M0.18 0.14 C8.22 0.33, 40.99 1.26, 48.94 1.72 M-1.18 -0.83 C6.69 -0.57, 40.33 2.56, 48.34 2.82" stroke="#000000" stroke-width="1" fill="none"></path></g><g transform="translate(128.33203125 92.96875) rotate(0 23.88000617932994 0.9945702052768297)"><path d="M25.35 10.65 C32.09 6.39, 42.46 5.01, 49.17 2.28 M25.79 9.41 C31.98 8.07, 40.39 5.23, 48.36 2.56" stroke="#000000" stroke-width="1" fill="none"></path></g><g transform="translate(128.33203125 92.96875) rotate(0 23.88000617932994 0.9945702052768297)"><path d="M26.46 -5.85 C32.88 -4.15, 42.85 0.44, 49.17 2.28 M26.9 -7.09 C32.87 -3.26, 40.93 -0.93, 48.36 2.56" stroke="#000000" stroke-width="1" fill="none"></path></g></g><g stroke-linecap="round"><g transform="translate(207.48828125 59.984375) rotate(0 19.046316766738894 1.0407742763217698)"><path d="M-0.62 0.58 C5.99 0.74, 32.12 0.98, 38.71 1.25 M1.26 -0.16 C7.85 0.09, 31.87 1.64, 38.09 2.24" stroke="#000000" stroke-width="1" fill="none"></path></g><g transform="translate(207.48828125 59.984375) rotate(0 19.046316766738894 1.0407742763217698)"><path d="M20.64 8.36 C22.14 7.63, 27.71 3.66, 37.41 2.56 M19.9 7.26 C25.6 5.85, 30.94 4.65, 38.41 1.33" stroke="#000000" stroke-width="1" fill="none"></path></g><g transform="translate(207.48828125 59.984375) rotate(0 19.046316766738894 1.0407742763217698)"><path d="M21.65 -4.65 C22.96 -2.49, 28.3 -3.57, 37.41 2.56 M20.91 -5.75 C26.35 -2.85, 31.35 0.26, 38.41 1.33" stroke="#000000" stroke-width="1" fill="none"></path></g></g><g stroke-linecap="round"><g transform="translate(217.1171875 98.8984375) rotate(0 21.214215028998442 -0.534055108958853)"><path d="M0.93 -0.43 C8.13 -0.62, 35.68 -0.71, 42.47 -0.92 M-0.04 -1.69 C7.14 -1.7, 35.14 0.47, 41.98 0.63" stroke="#000000" stroke-width="1" fill="none"></path></g><g transform="translate(217.1171875 98.8984375) rotate(0 21.214215028998442 -0.534055108958853)"><path d="M21.36 8.13 C26.84 5.23, 30.35 5.2, 43.5 0.52 M21.7 6.27 C27.9 5.06, 34.15 3.75, 41.46 -0.12" stroke="#000000" stroke-width="1" fill="none"></path></g><g transform="translate(217.1171875 98.8984375) rotate(0 21.214215028998442 -0.534055108958853)"><path d="M22.12 -6.08 C27.45 -5.59, 30.78 -2.22, 43.5 0.52 M22.46 -7.94 C28.4 -4.96, 34.43 -2.08, 41.46 -0.12" stroke="#000000" stroke-width="1" fill="none"></path></g></g></svg>