<svg version="1.1" xmlns="http://www.w3.org/2000/svg" viewBox="0 0 468.10546875 120" width="468.10546875" height="120">
  <!-- svg-source:excalidraw -->
  
  <defs>
    <style>
      @font-face {
        font-family: "Virgil";
        src: url("https://excalidraw.com/Virgil.woff2");
      }
      @font-face {
        font-family: "Cascadia";
        src: url("https://excalidraw.com/Cascadia.woff2");
      }
    </style>
  </defs>
  <rect x="0" y="0" width="468.10546875" height="120" fill="#ffffff"></rect><g transform="translate(323.10546875 48.26953125) rotate(0 67.5 10)"><text x="0" y="14" font-family="Virgil, Segoe UI Emoji" font-size="16px" fill="#000000" text-anchor="start" style="white-space: pre;" direction="ltr">reactive obj[key]</text></g><g transform="translate(10 32.44140625) rotate(0 60 10)"><text x="0" y="14" font-family="Virgil, Segoe UI Emoji" font-size="16px" fill="#000000" text-anchor="start" style="white-space: pre;" direction="ltr">return obj[key]</text></g><g transform="translate(196.9375 10) rotate(0 68 50)"><text x="0" y="14" font-family="Virgil, Segoe UI Emoji" font-size="16px" fill="#000000" text-anchor="start" style="white-space: pre;" direction="ltr">{</text><text x="0" y="34" font-family="Virgil, Segoe UI Emoji" font-size="16px" fill="#000000" text-anchor="start" style="white-space: pre;" direction="ltr">    get value() {</text><text x="0" y="54" font-family="Virgil, Segoe UI Emoji" font-size="16px" fill="#000000" text-anchor="start" style="white-space: pre;" direction="ltr">        return </text><text x="0" y="74" font-family="Virgil, Segoe UI Emoji" font-size="16px" fill="#000000" text-anchor="start" style="white-space: pre;" direction="ltr">    }</text><text x="0" y="94" font-family="Virgil, Segoe UI Emoji" font-size="16px" fill="#000000" text-anchor="start" style="white-space: pre;" direction="ltr">}</text></g><g stroke-linecap="round"><g transform="translate(143.0234375 46.6875) rotate(0 23.758868444678374 1.5722701794980196)"><path d="M0.65 -1.18 C8.83 -0.63, 40.13 2.37, 47.99 3.28 M-0.47 0.81 C7.69 1.48, 39.38 3.52, 47.33 4.33" stroke="#000000" stroke-width="1" fill="none"></path></g><g transform="translate(143.0234375 46.6875) rotate(0 23.758868444678374 1.5722701794980196)"><path d="M22.41 11.57 C27.62 9.86, 34.14 9.33, 47.2 3.07 M24.26 10.76 C32.16 9.6, 38.36 6.39, 46.41 4.14" stroke="#000000" stroke-width="1" fill="none"></path></g><g transform="translate(143.0234375 46.6875) rotate(0 23.758868444678374 1.5722701794980196)"><path d="M23.71 -4.66 C28.65 -2.97, 34.9 -0.1, 47.2 3.07 M25.57 -5.48 C32.93 -1.74, 38.73 -0.06, 46.41 4.14" stroke="#000000" stroke-width="1" fill="none"></path></g></g></svg>