<svg version="1.1" xmlns="http://www.w3.org/2000/svg" viewBox="0 0 1041.78515625 510.20703125" width="2083.5703125" height="1020.4140625">
  <!-- svg-source:excalidraw -->
  
  <defs>
    <style>
      @font-face {
        font-family: "Virgil";
        src: url("https://excalidraw.com/Virgil.woff2");
      }
      @font-face {
        font-family: "Cascadia";
        src: url("https://excalidraw.com/Cascadia.woff2");
      }
    </style>
  </defs>
  <rect x="0" y="0" width="1041.78515625" height="510.20703125" fill="#ffffff"></rect><g transform="translate(10 42.673828125) rotate(0 32.5 25)"><text x="0" y="18" font-family="Virgil, Segoe UI Emoji" font-size="20px" fill="#000000" text-anchor="start" style="white-space: pre;" direction="ltr">Effect</text><text x="0" y="43" font-family="Virgil, Segoe UI Emoji" font-size="20px" fill="#000000" text-anchor="start" style="white-space: pre;" direction="ltr"></text></g><g transform="translate(198.30859375 221.259765625) rotate(0 34.5 12.5)"><text x="0" y="18" font-family="Virgil, Segoe UI Emoji" font-size="20px" fill="#000000" text-anchor="start" style="white-space: pre;" direction="ltr">track()</text></g><g stroke-linecap="round"><g transform="translate(275.39453125 233.98101141626353) rotate(0 18.544454072872156 0.16673330495351024)"><path d="M0.82 1.17 C7.08 0.9, 31.14 -0.44, 37.3 -0.84 M-0.21 0.74 C5.98 0.57, 30.41 0.65, 36.71 0.49" stroke="#000000" stroke-width="1" fill="none"></path></g><g transform="translate(275.39453125 233.98101141626353) rotate(0 18.544454072872156 0.16673330495351024)"><path d="M21.35 7.96 C23.66 6.75, 27.9 4.59, 38.48 2.02 M19.02 7.54 C23.94 5.14, 27.9 3.69, 36.92 -0.07" stroke="#000000" stroke-width="1" fill="none"></path></g><g transform="translate(275.39453125 233.98101141626353) rotate(0 18.544454072872156 0.16673330495351024)"><path d="M21.23 -4.56 C23.65 -2.29, 27.93 -0.98, 38.48 2.02 M18.89 -4.98 C23.8 -4.32, 27.78 -2.71, 36.92 -0.07" stroke="#000000" stroke-width="1" fill="none"></path></g></g><g transform="translate(152.5546875 106.689453125) rotate(0 143 10)"><text x="0" y="14" font-family="Virgil, Segoe UI Emoji" font-size="16px" fill="#000000" text-anchor="start" style="white-space: pre;" direction="ltr">add effectStack to support nesting</text></g><g transform="translate(192.375 336.451171875) rotate(0 32.5 12.5)"><text x="0" y="18" font-family="Virgil, Segoe UI Emoji" font-size="20px" fill="#000000" text-anchor="start" style="white-space: pre;" direction="ltr">trigger</text></g><g transform="translate(316.515625 327.498046875) rotate(0 101.5 20)"><text x="0" y="14" font-family="Virgil, Segoe UI Emoji" font-size="16px" fill="#000000" text-anchor="start" style="white-space: pre;" direction="ltr">get target's effects </text><text x="0" y="34" font-family="Virgil, Segoe UI Emoji" font-size="16px" fill="#000000" text-anchor="start" style="white-space: pre;" direction="ltr">and Run with new effects</text></g><g stroke-linecap="round"><g transform="translate(268.7109375 359.7989811857839) rotate(0 18.43126968132333 0.8714612406886317)"><path d="M0.96 -1.11 C6.79 -0.65, 28.72 2.4, 34.68 2.85 M0.01 0.92 C6.23 0.98, 30.78 0.59, 36.85 0.84" stroke="#000000" stroke-width="1" fill="none"></path></g><g transform="translate(268.7109375 359.7989811857839) rotate(0 18.43126968132333 0.8714612406886317)"><path d="M18.32 5.29 C24.94 6.51, 27.78 3.5, 35.45 0.45 M20 6.39 C27.27 4.91, 33.42 1.94, 36.7 0.47" stroke="#000000" stroke-width="1" fill="none"></path></g><g transform="translate(268.7109375 359.7989811857839) rotate(0 18.43126968132333 0.8714612406886317)"><path d="M18.43 -6.96 C25.03 -2.36, 27.84 -2, 35.45 0.45 M20.1 -5.85 C27.23 -2.52, 33.33 -0.69, 36.7 0.47" stroke="#000000" stroke-width="1" fill="none"></path></g></g><g transform="translate(27.72265625 262.416015625) rotate(0 44.5 10)"><text x="0" y="14" font-family="Virgil, Segoe UI Emoji" font-size="16px" fill="#000000" text-anchor="start" style="white-space: pre;" direction="ltr">proxy data</text></g><g stroke-linecap="round"><g transform="translate(128.00781250000006 265.78838268273256) rotate(0 29.225486645251465 -11.108674424427363)"><path d="M-0.04 -0.49 C9.76 -3.89, 47.95 -16.45, 57.66 -19.96 M-1.51 -1.79 C8.76 -5.58, 50.15 -18.57, 59.97 -21.73" stroke="#000000" stroke-width="1" fill="none"></path></g><g transform="translate(128.00781250000006 265.78838268273256) rotate(0 29.225486645251465 -11.108674424427363)"><path d="M35.4 -4.69 C42.2 -7.5, 44.42 -11.82, 59.14 -23.29 M36.35 -4.36 C44.08 -9.24, 51.68 -14.96, 59.87 -22.69" stroke="#000000" stroke-width="1" fill="none"></path></g><g transform="translate(128.00781250000006 265.78838268273256) rotate(0 29.225486645251465 -11.108674424427363)"><path d="M29.18 -24.25 C37.33 -23.01, 40.84 -23.28, 59.14 -23.29 M30.13 -23.92 C39.91 -22.3, 49.59 -21.51, 59.87 -22.69" stroke="#000000" stroke-width="1" fill="none"></path></g></g><g transform="translate(127.953125 235.029296875) rotate(0 13.5 10)"><text x="0" y="14" font-family="Virgil, Segoe UI Emoji" font-size="16px" fill="#000000" text-anchor="start" style="white-space: pre;" direction="ltr">get</text></g><g stroke-linecap="round"><g transform="translate(113.5720941163832 291.814453125) rotate(0 35.64988062251129 29.537924807973127)"><path d="M-1.08 0.61 C10.63 10.32, 57.95 49.41, 70.06 59.18 M0.55 -0.11 C12.67 9.13, 60.6 47.71, 72.38 57.25" stroke="#000000" stroke-width="1" fill="none"></path></g><g transform="translate(113.5720941163832 291.814453125) rotate(0 35.64988062251129 29.537924807973127)"><path d="M45.02 46.3 C52.63 51.82, 60.69 54.36, 72.96 57.05 M44.22 47.09 C53.6 50.48, 63.09 53.19, 72.03 57.3" stroke="#000000" stroke-width="1" fill="none"></path></g><g transform="translate(113.5720941163832 291.814453125) rotate(0 35.64988062251129 29.537924807973127)"><path d="M57.9 30.32 C62.02 40.22, 66.46 47.25, 72.96 57.05 M57.1 31.12 C62.17 39.78, 67.47 47.68, 72.03 57.3" stroke="#000000" stroke-width="1" fill="none"></path></g></g><g transform="translate(146.953125 303.029296875) rotate(0 14 10)"><text x="0" y="14" font-family="Virgil, Segoe UI Emoji" font-size="16px" fill="#000000" text-anchor="start" style="white-space: pre;" direction="ltr">set</text></g><g transform="translate(320.375 224.84765625) rotate(0 97 10)"><text x="0" y="14" font-family="Virgil, Segoe UI Emoji" font-size="16px" fill="#000000" text-anchor="start" style="white-space: pre;" direction="ltr">collect the activeEffect</text></g><g transform="translate(692.3984375 196.55859375) rotate(0 89.5 28.5)"><text x="0" y="21.5" font-family="Virgil, Segoe UI Emoji" font-size="20px" fill="#000000" text-anchor="start" style="white-space: pre;" direction="ltr">weakMap（Bucket)</text><text x="0" y="50" font-family="Virgil, Segoe UI Emoji" font-size="20px" fill="#000000" text-anchor="start" style="white-space: pre;" direction="ltr">）</text></g><g transform="translate(654.36328125 271.46484375) rotate(0 15.5 12.5)"><text x="0" y="18" font-family="Virgil, Segoe UI Emoji" font-size="20px" fill="#000000" text-anchor="start" style="white-space: pre;" direction="ltr">key</text></g><g stroke-linecap="round" transform="translate(626.93359375 312.546875) rotate(0 38.453125 63.197265625)"><path d="M0.61 -0.31 C20.07 -0.7, 41.68 2.4, 78.26 -0.12 M0.57 -0.88 C25.02 1.29, 50.05 1.49, 77.1 0.68 M77.66 0.93 C76.8 38.24, 75.79 75.08, 75.73 125.5 M76.41 0.87 C76.35 35.21, 74.86 70.18, 76.25 126.03 M78.62 125.27 C47.89 127.11, 17.49 124.95, 1.63 125.98 M76.6 125.83 C49.43 126.77, 21.58 125.86, 0.74 126.18 M1.3 125.02 C-0.4 82.21, -1.8 39.47, 0.3 -1.07 M0.06 125.42 C-0.18 83.8, -0.91 42.31, -0.63 -0.14" stroke="#000000" stroke-width="1" fill="none"></path></g><g transform="translate(636.06640625 326.90234375) rotate(0 29 10)"><text x="0" y="14" font-family="Virgil, Segoe UI Emoji" font-size="16px" fill="#000000" text-anchor="start" style="white-space: pre;" direction="ltr">target1</text></g><g transform="translate(635.31640625 361.703125) rotate(0 32.5 10)"><text x="0" y="14" font-family="Virgil, Segoe UI Emoji" font-size="16px" fill="#000000" text-anchor="start" style="white-space: pre;" direction="ltr">target2</text></g><g transform="translate(637.234375 397.95703125) rotate(0 32 10)"><text x="0" y="14" font-family="Virgil, Segoe UI Emoji" font-size="16px" fill="#000000" text-anchor="start" style="white-space: pre;" direction="ltr">target3</text></g><g stroke-linecap="round"><g transform="translate(704.7205397896621 262.4140625) rotate(0 -5.830218175387813 2.7785955969093266)"><path d="M0.77 -0.4 C-1.3 0.78, -9.52 5.01, -11.98 6.3 M-0.29 -1.66 C-2.46 -0.31, -10.54 5.51, -12.43 7.21" stroke="#000000" stroke-width="1" fill="none"></path></g><g transform="translate(704.7205397896621 262.4140625) rotate(0 -5.830218175387813 2.7785955969093266)"><path d="M-8.76 1.44 C-10.6 2.35, -11.26 5.81, -12.02 6.5 M-8.76 0.89 C-9.74 3.06, -10.86 4.35, -12.15 7.12" stroke="#000000" stroke-width="1" fill="none"></path></g><g transform="translate(704.7205397896621 262.4140625) rotate(0 -5.830218175387813 2.7785955969093266)"><path d="M-5.59 5.45 C-8.45 5.04, -10.18 7.16, -12.02 6.5 M-5.58 4.89 C-7.52 5.84, -9.6 5.91, -12.15 7.12" stroke="#000000" stroke-width="1" fill="none"></path></g></g><g stroke-linecap="round"><g transform="translate(699.484375 282.734375) rotate(0 50.380389598170325 1.2163692351009558)"><path d="M0.78 1 C17.66 1.24, 84.17 1.91, 101.03 2.19 M-0.27 0.47 C16.44 0.28, 82.98 0.22, 99.94 0.26" stroke="#000000" stroke-width="1" fill="none"></path></g><g transform="translate(699.484375 282.734375) rotate(0 50.380389598170325 1.2163692351009558)"><path d="M73.41 10.06 C80.24 8.48, 88.91 2.77, 98.22 -0.79 M71.17 10.32 C81.2 6.42, 90.2 3.46, 100.46 0.72" stroke="#000000" stroke-width="1" fill="none"></path></g><g transform="translate(699.484375 282.734375) rotate(0 50.380389598170325 1.2163692351009558)"><path d="M73.41 -10.46 C80.37 -6.26, 89.04 -6.19, 98.22 -0.79 M71.17 -10.2 C81.01 -7.55, 90 -3.96, 100.46 0.72" stroke="#000000" stroke-width="1" fill="none"></path></g></g><g transform="translate(818.73828125 267.8515625) rotate(0 54.5 10)"><text x="0" y="14" font-family="Virgil, Segoe UI Emoji" font-size="16px" fill="#000000" text-anchor="start" style="white-space: pre;" direction="ltr">Map(depsMap)</text></g><g transform="translate(781.5390625 318.90234375) rotate(0 12.5 10)"><text x="0" y="14" font-family="Virgil, Segoe UI Emoji" font-size="16px" fill="#000000" text-anchor="start" style="white-space: pre;" direction="ltr">key</text></g><g stroke-linecap="round" transform="translate(757.7578125 350.19140625) rotate(0 41.341796875 58.556640625)"><path d="M-0.85 -0.28 C29.85 1.73, 61.94 -0.7, 83.53 -0.65 M-0.23 -0.01 C28.07 -1.33, 55.45 -1.71, 83.63 -0.75 M82.21 -0.77 C81.79 26.51, 82.63 56.72, 81.28 117.41 M82.43 0.25 C83.03 23.78, 83.69 49.5, 82.27 116.45 M80.79 116.04 C57.06 117.36, 28.57 117.73, 0.68 115.52 M81.89 116.39 C61.54 116.96, 38.53 117.78, -0.7 116.79 M-1.66 116.15 C0.95 89.06, 1.67 59.21, -1.92 0.6 M0.79 117.03 C-0.42 77.35, -1.23 37.61, 0.92 -0.92" stroke="#000000" stroke-width="1" fill="none"></path></g><g transform="translate(761.90234375 364.13671875) rotate(0 36 10)"><text x="0" y="14" font-family="Virgil, Segoe UI Emoji" font-size="16px" fill="#000000" text-anchor="start" style="white-space: pre;" direction="ltr">Property1</text></g><g transform="translate(761.90234375 392.08203125) rotate(0 39.5 10)"><text x="0" y="14" font-family="Virgil, Segoe UI Emoji" font-size="16px" fill="#000000" text-anchor="start" style="white-space: pre;" direction="ltr">Property2</text></g><g transform="translate(761.90234375 427.19921875) rotate(0 39 10)"><text x="0" y="14" font-family="Virgil, Segoe UI Emoji" font-size="16px" fill="#000000" text-anchor="start" style="white-space: pre;" direction="ltr">Property3</text></g><g stroke-linecap="round"><g transform="translate(864.9425867502323 299.375) rotate(0 -26.740653016908254 9.913146803157673)"><path d="M-0.78 1.17 C-9.86 4.15, -44.86 14.8, -53.57 17.48 M1.02 0.74 C-8.31 3.96, -45.42 16.13, -54.5 19.08" stroke="#000000" stroke-width="1" fill="none"></path></g><g transform="translate(864.9425867502323 299.375) rotate(0 -26.740653016908254 9.913146803157673)"><path d="M-30.39 1.75 C-40.6 9.12, -49.44 15.77, -56.44 18.66 M-32.09 2.59 C-40.03 7.46, -48.25 14.8, -55.22 18.49" stroke="#000000" stroke-width="1" fill="none"></path></g><g transform="translate(864.9425867502323 299.375) rotate(0 -26.740653016908254 9.913146803157673)"><path d="M-24.39 20.06 C-36.83 20.43, -47.95 20.12, -56.44 18.66 M-26.09 20.91 C-36.4 18.99, -46.86 19.52, -55.22 18.49" stroke="#000000" stroke-width="1" fill="none"></path></g></g><g stroke-linecap="round"><g transform="translate(846.5507560103256 330.4551983624542) rotate(0 41.33950351443798 1.680948432986611)"><path d="M-0.79 0.7 C13.29 1.23, 69.59 3.08, 83.47 3.34 M0.99 0.02 C15.02 0.23, 68.59 1.24, 82.57 1.83" stroke="#000000" stroke-width="1" fill="none"></path></g><g transform="translate(846.5507560103256 330.4551983624542) rotate(0 41.33950351443798 1.680948432986611)"><path d="M55.26 11.4 C62.1 7.91, 66.32 5.95, 83.17 3.42 M53.56 11.04 C62.51 8.54, 69.19 5.58, 83.05 1.96" stroke="#000000" stroke-width="1" fill="none"></path></g><g transform="translate(846.5507560103256 330.4551983624542) rotate(0 41.33950351443798 1.680948432986611)"><path d="M55.85 -9.11 C62.59 -8.23, 66.69 -5.82, 83.17 3.42 M54.15 -9.48 C62.83 -6.31, 69.34 -3.61, 83.05 1.96" stroke="#000000" stroke-width="1" fill="none"></path></g></g><g transform="translate(729.36328125 258.46484375) rotate(0 21 10)"><text x="0" y="14" font-family="Virgil, Segoe UI Emoji" font-size="16px" fill="#000000" text-anchor="start" style="white-space: pre;" direction="ltr">value</text></g><g transform="translate(847.36328125 306.46484375) rotate(0 21 10)"><text x="0" y="14" font-family="Virgil, Segoe UI Emoji" font-size="16px" fill="#000000" text-anchor="start" style="white-space: pre;" direction="ltr">value</text></g><g transform="translate(945.36328125 324.46484375) rotate(0 37.5 10)"><text x="0" y="14" font-family="Virgil, Segoe UI Emoji" font-size="16px" fill="#000000" text-anchor="start" style="white-space: pre;" direction="ltr">Set(deps)</text></g><g stroke-linecap="round" transform="translate(932.51953125 355.55078125) rotate(0 41.251953125 57.564453125)"><path d="M1.34 0.78 C20.14 -0.39, 42.19 0.56, 80.82 1.28 M-0.67 -0.29 C17.84 1.37, 34.19 -0.34, 81.81 0.1 M84.16 0.32 C81.24 31.78, 83.93 61.79, 82.13 113.79 M83.35 0.91 C82.46 39.13, 82.28 78.05, 83.01 115.57 M83.54 115.83 C51.41 114.51, 23.32 115.45, -1.83 114.01 M82.8 114.79 C61.88 114.06, 41.27 114.35, -0.43 115.6 M-1.45 116.23 C0.25 83.13, 1.91 48.85, 0.18 -1.83 M-0.9 115.37 C1.31 74.4, 0.69 32.25, -0.71 0.22" stroke="#000000" stroke-width="1" fill="none"></path></g><g transform="translate(944.43359375 371.46484375) rotate(0 27.5 10)"><text x="0" y="14" font-family="Virgil, Segoe UI Emoji" font-size="16px" fill="#000000" text-anchor="start" style="white-space: pre;" direction="ltr">effect1</text></g><g transform="translate(944.43359375 398.796875) rotate(0 31.5 10)"><text x="0" y="14" font-family="Virgil, Segoe UI Emoji" font-size="16px" fill="#000000" text-anchor="start" style="white-space: pre;" direction="ltr">effect2</text></g><g transform="translate(944.43359375 435.140625) rotate(0 31 10)"><text x="0" y="14" font-family="Virgil, Segoe UI Emoji" font-size="16px" fill="#000000" text-anchor="start" style="white-space: pre;" direction="ltr">effect3</text></g><g stroke-linecap="round" transform="translate(599.18359375 191.51171875) rotate(0 216.30078125 154.34765625)"><path d="M-0.47 0.66 C161.63 -1.03, 320.69 -1.21, 431.93 0.47 M-0.47 -0.46 C140.93 1.47, 281.64 1.42, 432.78 -0.4 M432.46 -1.12 C433.26 102.57, 435 203.22, 432.73 307.35 M433 -0.7 C434.5 106.37, 434.75 211.6, 432.82 308.74 M433.6 308.19 C272.12 310.64, 110.87 309.17, -0.12 308.43 M432.26 308.23 C263.56 307.65, 95.56 308.63, 0.14 308.85 M-0.81 309.86 C-1.74 241.62, -0.58 174.13, 0.57 -0.19 M0.35 308.41 C0.01 215.54, -0.03 121.92, 0.19 -0.41" stroke="#000000" stroke-width="1" fill="none"></path></g><g stroke-linecap="round"><g transform="translate(521.2419295395287 254.17443096450478) rotate(0 31.438637232662643 13.019524669768629)"><path d="M-1.12 -0.71 C9.64 3.47, 53.37 21.05, 64 25.49 M0.49 1.53 C11.23 5.83, 53.36 22.47, 63.56 26.75" stroke="#000000" stroke-width="1" fill="none"></path></g><g transform="translate(521.2419295395287 254.17443096450478) rotate(0 31.438637232662643 13.019524669768629)"><path d="M32.39 27.28 C40.3 25.59, 48.66 28.14, 65 25.26 M32.61 25.73 C45.05 25.53, 57.44 25.95, 63.31 25.79" stroke="#000000" stroke-width="1" fill="none"></path></g><g transform="translate(521.2419295395287 254.17443096450478) rotate(0 31.438637232662643 13.019524669768629)"><path d="M40.1 8.27 C46.12 11.33, 52.52 18.71, 65 25.26 M40.33 6.71 C49.81 14.05, 59.13 22.05, 63.31 25.79" stroke="#000000" stroke-width="1" fill="none"></path></g></g><g stroke-linecap="round"><g transform="translate(526.71484375 340.4870591035143) rotate(0 24.780072551071612 -1.0642894099020737)"><path d="M0.28 -0.86 C8.69 -1.43, 42.14 -2.91, 50.59 -3.43 M-1.03 1.3 C7.18 0.9, 40.93 -1.4, 49.46 -2.16" stroke="#000000" stroke-width="1" fill="none"></path></g><g transform="translate(526.71484375 340.4870591035143) rotate(0 24.780072551071612 -1.0642894099020737)"><path d="M24.8 7.81 C32.63 5.07, 38.91 1.27, 48.83 -3.26 M25.66 7.97 C32.86 5.07, 38.16 2.55, 48.73 -1.2" stroke="#000000" stroke-width="1" fill="none"></path></g><g transform="translate(526.71484375 340.4870591035143) rotate(0 24.780072551071612 -1.0642894099020737)"><path d="M23.46 -9.59 C31.71 -6.91, 38.4 -5.29, 48.83 -3.26 M24.32 -9.42 C31.73 -7.88, 37.37 -5.96, 48.73 -1.2" stroke="#000000" stroke-width="1" fill="none"></path></g></g><g transform="translate(291.61328125 10) rotate(0 286 23)"><text x="0" y="17" font-family="Virgil, Segoe UI Emoji" font-size="16px" fill="#000000" text-anchor="start" style="white-space: pre;" direction="ltr">为了删除分支切换中遗留的effect，每次执行effect时，clearnup(effect.deps);</text><text x="0" y="40" font-family="Virgil, Segoe UI Emoji" font-size="16px" fill="#000000" text-anchor="start" style="white-space: pre;" direction="ltr">创建一个新的set来避免无限循环；</text></g><g stroke-linecap="round"><g transform="translate(358.76953125 102.953125) rotate(0 -0.15050716213880833 0.6022274869825708)"><path d="M-1.07 -0.64 C-0.96 -0.56, 0.62 -0.31, 0.77 -0.02 M0.56 1.64 C0.59 1.96, 0.49 1.9, 0.23 1.5" stroke="#000000" stroke-width="1" fill="none"></path></g><g transform="translate(358.76953125 102.953125) rotate(0 -0.15050716213880833 0.6022274869825708)"><path d="M0.23 1.5 C0.23 1.5, 0.23 1.5, 0.23 1.5 M0.23 1.5 C0.23 1.5, 0.23 1.5, 0.23 1.5" stroke="#000000" stroke-width="1" fill="none"></path></g><g transform="translate(358.76953125 102.953125) rotate(0 -0.15050716213880833 0.6022274869825708)"><path d="M0.23 1.5 C0.23 1.5, 0.23 1.5, 0.23 1.5 M0.23 1.5 C0.23 1.5, 0.23 1.5, 0.23 1.5" stroke="#000000" stroke-width="1" fill="none"></path></g></g><g transform="translate(149.3359375 28.44140625) rotate(0 32.5 10)"><text x="0" y="14" font-family="Virgil, Segoe UI Emoji" font-size="16px" fill="#000000" text-anchor="start" style="white-space: pre;" direction="ltr">clean up</text></g><g stroke-linecap="round"><g transform="translate(80.42578125 61.18124850195261) rotate(0 30.064453125 -11.364218212594537)"><path d="M0 0 C10.02 -3.79, 50.11 -18.94, 60.13 -22.73 M0 0 C10.02 -3.79, 50.11 -18.94, 60.13 -22.73" stroke="#000000" stroke-width="1" fill="none"></path></g><g transform="translate(80.42578125 61.18124850195261) rotate(0 30.064453125 -11.364218212594537)"><path d="M37.39 -3.16 C46.22 -10.76, 55.05 -18.35, 60.13 -22.73 M37.39 -3.16 C44.39 -9.19, 51.39 -15.21, 60.13 -22.73" stroke="#000000" stroke-width="1" fill="none"></path></g><g transform="translate(80.42578125 61.18124850195261) rotate(0 30.064453125 -11.364218212594537)"><path d="M30.13 -22.36 C41.78 -22.5, 53.42 -22.65, 60.13 -22.73 M30.13 -22.36 C39.37 -22.47, 48.61 -22.59, 60.13 -22.73" stroke="#000000" stroke-width="1" fill="none"></path></g></g><g stroke-linecap="round"><g transform="translate(225.23828125 34.107276814948165) rotate(0 32.6875 -3.6074838530470785)"><path d="M0 0 C10.9 -1.2, 54.48 -6.01, 65.38 -7.21 M0 0 C10.9 -1.2, 54.48 -6.01, 65.38 -7.21" stroke="#000000" stroke-width="1" fill="none"></path></g><g transform="translate(225.23828125 34.107276814948165) rotate(0 32.6875 -3.6074838530470785)"><path d="M38.48 6.08 C48.5 1.12, 58.53 -3.83, 65.38 -7.21 M38.48 6.08 C46.6 2.06, 54.73 -1.95, 65.38 -7.21" stroke="#000000" stroke-width="1" fill="none"></path></g><g transform="translate(225.23828125 34.107276814948165) rotate(0 32.6875 -3.6074838530470785)"><path d="M36.23 -14.32 C47.09 -11.67, 57.96 -9.02, 65.38 -7.21 M36.23 -14.32 C45.03 -12.17, 53.84 -10.03, 65.38 -7.21" stroke="#000000" stroke-width="1" fill="none"></path></g></g><g transform="translate(155.6953125 65.81640625) rotate(0 68 10)"><text x="0" y="14" font-family="Virgil, Segoe UI Emoji" font-size="16px" fill="#000000" text-anchor="start" style="white-space: pre;" direction="ltr">set activeEffect</text></g><g stroke-linecap="round"><g transform="translate(83.57421875 69.35232593632432) rotate(0 31.80078125 0.4081293572384368)"><path d="M0 0 C10.6 0.14, 53 0.68, 63.6 0.82 M0 0 C10.6 0.14, 53 0.68, 63.6 0.82" stroke="#000000" stroke-width="1" fill="none"></path></g><g transform="translate(83.57421875 69.35232593632432) rotate(0 31.80078125 0.4081293572384368)"><path d="M35.28 10.71 C44.66 7.43, 54.05 4.16, 63.6 0.82 M35.28 10.71 C42.51 8.19, 49.74 5.66, 63.6 0.82" stroke="#000000" stroke-width="1" fill="none"></path></g><g transform="translate(83.57421875 69.35232593632432) rotate(0 31.80078125 0.4081293572384368)"><path d="M35.54 -9.81 C44.84 -6.29, 54.14 -2.77, 63.6 0.82 M35.54 -9.81 C42.71 -7.09, 49.87 -4.38, 63.6 0.82" stroke="#000000" stroke-width="1" fill="none"></path></g></g><g stroke-linecap="round"><g transform="translate(85.984375 82.12804630921147) rotate(0 29.248046875 17.03053232781336)"><path d="M0 0 C9.75 5.68, 48.75 28.38, 58.5 34.06 M0 0 C9.75 5.68, 48.75 28.38, 58.5 34.06" stroke="#000000" stroke-width="1" fill="none"></path></g><g transform="translate(85.984375 82.12804630921147) rotate(0 29.248046875 17.03053232781336)"><path d="M28.97 28.74 C37.58 30.29, 46.2 31.85, 58.5 34.06 M28.97 28.74 C36.48 30.1, 43.99 31.45, 58.5 34.06" stroke="#000000" stroke-width="1" fill="none"></path></g><g transform="translate(85.984375 82.12804630921147) rotate(0 29.248046875 17.03053232781336)"><path d="M39.3 11.01 C44.9 17.73, 50.5 24.46, 58.5 34.06 M39.3 11.01 C44.18 16.87, 49.06 22.73, 58.5 34.06" stroke="#000000" stroke-width="1" fill="none"></path></g></g><g transform="translate(13.328125 419.6640625) rotate(0 214.5 23)"><text x="0" y="17" font-family="Virgil, Segoe UI Emoji" font-size="16px" fill="#000000" text-anchor="start" style="white-space: pre;" direction="ltr">使用Reflect.get(target, key, receiver)替代target[key], </text><text x="0" y="40" font-family="Virgil, Segoe UI Emoji" font-size="16px" fill="#000000" text-anchor="start" style="white-space: pre;" direction="ltr">确保get中的this</text></g><g transform="translate(14.86328125 386.53125) rotate(0 26.5 12.5)"><text x="0" y="18" font-family="Virgil, Segoe UI Emoji" font-size="20px" fill="#000000" text-anchor="start" style="white-space: pre;" direction="ltr">Hints:</text></g><g transform="translate(147.37890625 175.84375) rotate(0 46.5 12.5)"><text x="0" y="18" font-family="Virgil, Segoe UI Emoji" font-size="20px" fill="#000000" text-anchor="start" style="white-space: pre;" direction="ltr">schedular</text></g><g stroke-linecap="round"><g transform="translate(74.31201506942739 100.92578125000003) rotate(0 29.533445590286306 41.15760066550392)"><path d="M0 0 C9.84 13.72, 49.22 68.6, 59.07 82.32 M0 0 C9.84 13.72, 49.22 68.6, 59.07 82.32" stroke="#000000" stroke-width="1" fill="none"></path></g><g transform="translate(74.31201506942739 100.92578125000003) rotate(0 29.533445590286306 41.15760066550392)"><path d="M34.3 65.39 C39.54 68.97, 44.78 72.55, 59.07 82.32 M34.3 65.39 C41.29 70.17, 48.29 74.95, 59.07 82.32" stroke="#000000" stroke-width="1" fill="none"></path></g><g transform="translate(74.31201506942739 100.92578125000003) rotate(0 29.533445590286306 41.15760066550392)"><path d="M50.97 53.43 C52.68 59.54, 54.4 65.65, 59.07 82.32 M50.97 53.43 C53.26 61.59, 55.54 69.74, 59.07 82.32" stroke="#000000" stroke-width="1" fill="none"></path></g></g><g transform="translate(153.22265625 138.6328125) rotate(0 116.5 11.5)"><text x="0" y="17" font-family="Virgil, Segoe UI Emoji" font-size="16px" fill="#000000" text-anchor="start" style="white-space: pre;" direction="ltr">避免由obj.foo++导致的无限循环</text></g><g stroke-linecap="round"><g transform="translate(80.48540850290954 99.66057640058318) rotate(0 30.763155123545232 25.626650853091704)"><path d="M0 0 C10.25 8.54, 51.27 42.71, 61.53 51.25 M0 0 C10.25 8.54, 51.27 42.71, 61.53 51.25" stroke="#000000" stroke-width="1" fill="none"></path></g><g transform="translate(80.48540850290954 99.66057640058318) rotate(0 30.763155123545232 25.626650853091704)"><path d="M33.3 41.09 C44.23 45.03, 55.16 48.96, 61.53 51.25 M33.3 41.09 C41.73 44.13, 50.17 47.17, 61.53 51.25" stroke="#000000" stroke-width="1" fill="none"></path></g><g transform="translate(80.48540850290954 99.66057640058318) rotate(0 30.763155123545232 25.626650853091704)"><path d="M46.43 25.33 C52.28 35.37, 58.12 45.41, 61.53 51.25 M46.43 25.33 C50.94 33.07, 55.45 40.82, 61.53 51.25" stroke="#000000" stroke-width="1" fill="none"></path></g></g></svg>