<svg version="1.1" xmlns="http://www.w3.org/2000/svg" viewBox="0 0 500.53515625 251.58984375" width="500.53515625" height="251.58984375">
  <!-- svg-source:excalidraw -->
  
  <defs>
    <style>
      @font-face {
        font-family: "Virgil";
        src: url("https://excalidraw.com/Virgil.woff2");
      }
      @font-face {
        font-family: "Cascadia";
        src: url("https://excalidraw.com/Cascadia.woff2");
      }
    </style>
  </defs>
  <rect x="0" y="0" width="500.53515625" height="251.58984375" fill="#ffffff"></rect><g transform="translate(122.1171875 11.109375) rotate(0 35 10)"><text x="0" y="14" font-family="Virgil, Segoe UI Emoji" font-size="16px" fill="#000000" text-anchor="start" style="white-space: pre;" direction="ltr">computer</text></g><g transform="translate(10 10.03515625) rotate(0 26 10)"><text x="0" y="14" font-family="Virgil, Segoe UI Emoji" font-size="16px" fill="#000000" text-anchor="start" style="white-space: pre;" direction="ltr">getter</text></g><g transform="translate(263.1015625 10) rotate(0 11.5 10)"><text x="0" y="14" font-family="Virgil, Segoe UI Emoji" font-size="16px" fill="#000000" text-anchor="start" style="white-space: pre;" direction="ltr">obj</text></g><g stroke-linecap="round"><g transform="translate(67.2890625 19.86328125) rotate(0 20.68062012251933 0.5392118526156935)"><path d="M-0.82 0.64 C5.7 0.66, 33.04 0.13, 40.06 0.18 M0.95 -0.07 C7.74 0.05, 35.57 0.79, 42.18 1.15" stroke="#000000" stroke-width="1" fill="none"></path></g><g transform="translate(67.2890625 19.86328125) rotate(0 20.68062012251933 0.5392118526156935)"><path d="M23.62 5.57 C28.24 5.42, 36.95 1.72, 41.19 3.07 M22.69 6.9 C29.61 4.25, 36.77 3.16, 42.64 2.03" stroke="#000000" stroke-width="1" fill="none"></path></g><g transform="translate(67.2890625 19.86328125) rotate(0 20.68062012251933 0.5392118526156935)"><path d="M24.16 -8.52 C28.57 -3.31, 37.09 -1.65, 41.19 3.07 M23.23 -7.19 C29.86 -4.72, 36.82 -0.69, 42.64 2.03" stroke="#000000" stroke-width="1" fill="none"></path></g></g><g stroke-linecap="round"><g transform="translate(207.140625 20.804240956452617) rotate(0 26.187744665145875 0.8727122572132799)"><path d="M-0.41 0.39 C8.21 0.64, 44.18 1.86, 52.79 2.22 M1.57 -0.45 C10.02 -0.62, 44.24 0.2, 52.34 0.39" stroke="#000000" stroke-width="1" fill="none"></path></g><g transform="translate(207.140625 20.804240956452617) rotate(0 26.187744665145875 0.8727122572132799)"><path d="M28.42 10.28 C38.18 4.57, 48.28 2.61, 51.9 0.67 M27.55 9.12 C32.71 6.71, 38.36 5.37, 53.24 -0.33" stroke="#000000" stroke-width="1" fill="none"></path></g><g transform="translate(207.140625 20.804240956452617) rotate(0 26.187744665145875 0.8727122572132799)"><path d="M28.83 -7.45 C38.54 -6.29, 48.48 -1.38, 51.9 0.67 M27.96 -8.61 C33.06 -7.42, 38.62 -5.18, 53.24 -0.33" stroke="#000000" stroke-width="1" fill="none"></path></g></g><g transform="translate(10.53515625 60.58984375) rotate(0 240 90.5)"><text x="0" y="16.625" font-family="Virgil, Segoe UI Emoji" font-size="16px" fill="#000000" text-anchor="start" style="white-space: pre;" direction="ltr">effectA(getterA, { ...options })，返回obj</text><text x="0" y="39.25" font-family="Virgil, Segoe UI Emoji" font-size="16px" fill="#000000" text-anchor="start" style="white-space: pre;" direction="ltr">当obj.value时，将getterA中的响应式数据dataA和getterA绑定。</text><text x="0" y="61.875" font-family="Virgil, Segoe UI Emoji" font-size="16px" fill="#000000" text-anchor="start" style="white-space: pre;" direction="ltr">当dataA变化时，触发getterA</text><text x="0" y="84.5" font-family="Virgil, Segoe UI Emoji" font-size="16px" fill="#000000" text-anchor="start" style="white-space: pre;" direction="ltr"></text><text x="0" y="107.125" font-family="Virgil, Segoe UI Emoji" font-size="16px" fill="#000000" text-anchor="start" style="white-space: pre;" direction="ltr">当obj.value嵌套在另一个effectB(getterB)时，</text><text x="0" y="129.75" font-family="Virgil, Segoe UI Emoji" font-size="16px" fill="#000000" text-anchor="start" style="white-space: pre;" direction="ltr">getterA中响应式数据的变化，没有触发getterB。</text><text x="0" y="152.375" font-family="Virgil, Segoe UI Emoji" font-size="16px" fill="#000000" text-anchor="start" style="white-space: pre;" direction="ltr">所以需要手动track obj，将getterB与obj.value绑定，</text><text x="0" y="175" font-family="Virgil, Segoe UI Emoji" font-size="16px" fill="#000000" text-anchor="start" style="white-space: pre;" direction="ltr">当getterA被触发时，在scheduler中trigger getterB</text></g><g stroke-linecap="round"><g transform="translate(138.79081877359926 34.9765625) rotate(0 -5.1197544714906655 10.059333372181285)"><path d="M0.29 -0.42 C-1.21 3.09, -8.09 17.22, -10.13 20.71 M-1.01 -1.69 C-2.49 1.98, -9.14 17.98, -10.53 21.81" stroke="#000000" stroke-width="1" fill="none"></path></g><g transform="translate(138.79081877359926 34.9765625) rotate(0 -5.1197544714906655 10.059333372181285)"><path d="M-10.64 10.72 C-11.16 11.45, -11.42 14, -9.91 21.38 M-10.66 9.94 C-10.5 13.43, -10.13 16.55, -10.62 22.2" stroke="#000000" stroke-width="1" fill="none"></path></g><g transform="translate(138.79081877359926 34.9765625) rotate(0 -5.1197544714906655 10.059333372181285)"><path d="M-2.92 13.77 C-5.04 13.88, -6.91 15.8, -9.91 21.38 M-2.94 12.98 C-4.81 15.64, -6.48 17.96, -10.62 22.2" stroke="#000000" stroke-width="1" fill="none"></path></g></g></svg>