<svg version="1.1" xmlns="http://www.w3.org/2000/svg" viewBox="0 0 862.6328125 428.375" width="1725.265625" height="856.75">
  <!-- svg-source:excalidraw -->
  
  <defs>
    <style>
      @font-face {
        font-family: "Virgil";
        src: url("https://excalidraw.com/Virgil.woff2");
      }
      @font-face {
        font-family: "Cascadia";
        src: url("https://excalidraw.com/Cascadia.woff2");
      }
    </style>
  </defs>
  <rect x="0" y="0" width="862.6328125" height="428.375" fill="#ffffff"></rect><g transform="translate(154.89453125 120.9296875) rotate(0 32.5 25)"><text x="0" y="18" font-family="Virgil, Segoe UI Emoji" font-size="20px" fill="#000000" text-anchor="start" style="white-space: pre;" direction="ltr">Effect</text><text x="0" y="43" font-family="Virgil, Segoe UI Emoji" font-size="20px" fill="#000000" text-anchor="start" style="white-space: pre;" direction="ltr"></text></g><g transform="translate(221.41015625 253.65234375) rotate(0 34.5 12.5)"><text x="0" y="18" font-family="Virgil, Segoe UI Emoji" font-size="20px" fill="#000000" text-anchor="start" style="white-space: pre;" direction="ltr">track()</text></g><g transform="translate(392.26953125 251.98828125) rotate(0 41.5 12.5)"><text x="0" y="18" font-family="Virgil, Segoe UI Emoji" font-size="20px" fill="#000000" text-anchor="start" style="white-space: pre;" direction="ltr">depsMap</text></g><g stroke-linecap="round"><g transform="translate(298.49609375 266.54662481233606) rotate(0 39.993672822872156 0.0814376233670373)"><path d="M0.82 1.17 C14.23 0.87, 66.89 -0.59, 80.19 -1.01 M-0.21 0.74 C13.13 0.54, 66.16 0.51, 79.61 0.32" stroke="#000000" stroke-width="1" fill="none"></path></g><g transform="translate(298.49609375 266.54662481233606) rotate(0 39.993672822872156 0.0814376233670373)"><path d="M53.43 11.91 C58.54 9.57, 65.78 6.25, 81.54 1.99 M50.88 11.45 C58.57 7.9, 65.19 5.47, 79.84 -0.29" stroke="#000000" stroke-width="1" fill="none"></path></g><g transform="translate(298.49609375 266.54662481233606) rotate(0 39.993672822872156 0.0814376233670373)"><path d="M53.3 -8.61 C58.58 -5.25, 65.86 -2.87, 81.54 1.99 M50.74 -9.07 C58.38 -7.6, 65.04 -5.01, 79.84 -0.29" stroke="#000000" stroke-width="1" fill="none"></path></g></g><g transform="translate(494.6328125 38.1484375) rotate(0 179 37.5)"><text x="0" y="18" font-family="Virgil, Segoe UI Emoji" font-size="20px" fill="#000000" text-anchor="start" style="white-space: pre;" direction="ltr">cleanup</text><text x="0" y="43" font-family="Virgil, Segoe UI Emoji" font-size="20px" fill="#000000" text-anchor="start" style="white-space: pre;" direction="ltr">set activeEffect</text><text x="0" y="68" font-family="Virgil, Segoe UI Emoji" font-size="20px" fill="#000000" text-anchor="start" style="white-space: pre;" direction="ltr">add effectStack to support nesting</text></g><g transform="translate(610.75 10) rotate(0 32.5 11.5)"><text x="0" y="17" font-family="Virgil, Segoe UI Emoji" font-size="16px" fill="#000000" text-anchor="start" style="white-space: pre;" direction="ltr">分支切换</text></g><g stroke-linecap="round"><g transform="translate(596.3697602447228 33.27821413102575) rotate(0 -11.647708900222256 4.540563454194853)"><path d="M-0.79 -0.32 C-4.58 1.36, -19.91 9.04, -23.93 10.61 M0.99 -1.53 C-2.75 -0.28, -19.85 6.77, -24.29 8.66" stroke="#000000" stroke-width="1" fill="none"></path></g><g transform="translate(596.3697602447228 33.27821413102575) rotate(0 -11.647708900222256 4.540563454194853)"><path d="M-14.68 0.76 C-15.9 1.4, -19.57 2.6, -24.84 9.15 M-14.84 -0.7 C-16.99 1.18, -18.66 2.64, -24.36 8.92" stroke="#000000" stroke-width="1" fill="none"></path></g><g transform="translate(596.3697602447228 33.27821413102575) rotate(0 -11.647708900222256 4.540563454194853)"><path d="M-11.11 9.31 C-13.09 8.22, -17.47 7.7, -24.84 9.15 M-11.27 7.85 C-14.13 7.99, -16.52 7.71, -24.36 8.92" stroke="#000000" stroke-width="1" fill="none"></path></g></g><g transform="translate(207.78515625 368.609375) rotate(0 32.5 12.5)"><text x="0" y="18" font-family="Virgil, Segoe UI Emoji" font-size="20px" fill="#000000" text-anchor="start" style="white-space: pre;" direction="ltr">trigger</text></g><g transform="translate(349.609375 375.375) rotate(0 188 21.5)"><text x="0" y="15.5" font-family="Virgil, Segoe UI Emoji" font-size="16px" fill="#000000" text-anchor="start" style="white-space: pre;" direction="ltr">get target's effects and Run with new effects</text><text x="0" y="37" font-family="Virgil, Segoe UI Emoji" font-size="16px" fill="#000000" text-anchor="start" style="white-space: pre;" direction="ltr">if effectFn === activeFn, 不执行</text></g><g stroke-linecap="round"><g transform="translate(283.2616833422435 397.9390238413488) rotate(0 27.702771760201585 4.4637236327479)"><path d="M0.96 -1.11 C9.88 0.54, 44.18 8.38, 53.22 10.04 M0.01 0.92 C9.32 2.18, 46.23 6.58, 55.4 8.03" stroke="#000000" stroke-width="1" fill="none"></path></g><g transform="translate(283.2616833422435 397.9390238413488) rotate(0 27.702771760201585 4.4637236327479)"><path d="M26.61 12.17 C36.23 13.7, 41.62 10.57, 53.83 7.58 M28.48 13.4 C39.77 12.14, 49.81 9.14, 55.22 7.61" stroke="#000000" stroke-width="1" fill="none"></path></g><g transform="translate(283.2616833422435 397.9390238413488) rotate(0 27.702771760201585 4.4637236327479)"><path d="M29.15 -6.51 C38.09 0.18, 42.78 2.19, 53.83 7.58 M31.02 -5.28 C41.15 0.77, 50.19 5.1, 55.22 7.61" stroke="#000000" stroke-width="1" fill="none"></path></g></g><g stroke-linecap="round"><g transform="translate(358.63671875 98.78172550532679) rotate(0 65.80476949103172 -4.599111973866258)"><path d="M-1.13 0.55 C20.8 -0.79, 110.31 -6.36, 132.74 -8.08 M0.48 -0.21 C22.17 -1.87, 109.82 -8.3, 131.94 -9.75" stroke="#000000" stroke-width="1" fill="none"></path></g><g transform="translate(358.63671875 98.78172550532679) rotate(0 65.80476949103172 -4.599111973866258)"><path d="M105.45 2.94 C116.88 -0.43, 124.92 -6.04, 133.11 -10.76 M103.98 1.99 C113.07 -1.83, 120.65 -4.19, 131.71 -10.37" stroke="#000000" stroke-width="1" fill="none"></path></g><g transform="translate(358.63671875 98.78172550532679) rotate(0 65.80476949103172 -4.599111973866258)"><path d="M104.02 -17.53 C116.01 -12.76, 124.62 -10.23, 133.11 -10.76 M102.55 -18.48 C111.96 -16.65, 119.93 -13.35, 131.71 -10.37" stroke="#000000" stroke-width="1" fill="none"></path></g></g><g transform="translate(10 295.6328125) rotate(0 44.5 10)"><text x="0" y="14" font-family="Virgil, Segoe UI Emoji" font-size="16px" fill="#000000" text-anchor="start" style="white-space: pre;" direction="ltr">proxy data</text></g><g stroke-linecap="round"><g transform="translate(110.28515625 301.609375) rotate(0 49.63759602025152 -14.38460896108299)"><path d="M-0.04 -0.49 C16.56 -4.98, 81.97 -21.91, 98.48 -26.52 M-1.51 -1.79 C15.57 -6.67, 84.17 -24.03, 100.79 -28.28" stroke="#000000" stroke-width="1" fill="none"></path></g><g transform="translate(110.28515625 301.609375) rotate(0 49.63759602025152 -14.38460896108299)"><path d="M75.19 -12.67 C82.21 -15.18, 84.64 -19.2, 99.96 -29.84 M76.14 -12.33 C84.21 -16.75, 92.16 -21.99, 100.69 -29.24" stroke="#000000" stroke-width="1" fill="none"></path></g><g transform="translate(110.28515625 301.609375) rotate(0 49.63759602025152 -14.38460896108299)"><path d="M70.12 -32.55 C78.26 -30.95, 81.74 -30.86, 99.96 -29.84 M71.07 -32.22 C80.81 -30.03, 90.45 -28.65, 100.69 -29.24" stroke="#000000" stroke-width="1" fill="none"></path></g></g><g transform="translate(141.4375 267.48828125) rotate(0 13.5 10)"><text x="0" y="14" font-family="Virgil, Segoe UI Emoji" font-size="16px" fill="#000000" text-anchor="start" style="white-space: pre;" direction="ltr">get</text></g><g stroke-linecap="round"><g transform="translate(104.59375 325.03125) rotate(0 47.84413080570289 30.15043310212903)"><path d="M-1.08 0.61 C14.7 10.52, 78.27 50.44, 94.45 60.41 M0.55 -0.11 C16.74 9.34, 80.93 48.73, 96.77 58.47" stroke="#000000" stroke-width="1" fill="none"></path></g><g transform="translate(104.59375 325.03125) rotate(0 47.84413080570289 30.15043310212903)"><path d="M68.4 51.23 C76.27 55.72, 84.61 57.22, 97.35 58.28 M67.6 52.02 C77.34 54.2, 87.15 55.71, 96.42 58.52" stroke="#000000" stroke-width="1" fill="none"></path></g><g transform="translate(104.59375 325.03125) rotate(0 47.84413080570289 30.15043310212903)"><path d="M79.13 33.74 C84.13 43.05, 89.45 49.46, 97.35 58.28 M78.34 34.53 C84.45 42.46, 90.77 49.65, 96.42 58.52" stroke="#000000" stroke-width="1" fill="none"></path></g></g><g transform="translate(160.4375 335.48828125) rotate(0 14 10)"><text x="0" y="14" font-family="Virgil, Segoe UI Emoji" font-size="16px" fill="#000000" text-anchor="start" style="white-space: pre;" direction="ltr">set</text></g><g transform="translate(333.28515625 88.25390625) rotate(0 8.5 10)"><text x="0" y="14" font-family="Virgil, Segoe UI Emoji" font-size="16px" fill="#000000" text-anchor="start" style="white-space: pre;" direction="ltr">fn</text></g><g stroke-linecap="round"><g transform="translate(226.84231084854355 120.3894697544921) rotate(0 47.14652676559513 -7.254517245774721)"><path d="M-0.33 -0.75 C15.49 -3.47, 78.98 -13.5, 94.62 -15.99 M1.7 1.48 C17.49 -1.12, 79.12 -12.11, 94.3 -14.77" stroke="#000000" stroke-width="1" fill="none"></path></g><g transform="translate(226.84231084854355 120.3894697544921) rotate(0 47.14652676559513 -7.254517245774721)"><path d="M67.08 2.23 C74.39 -3.71, 82.04 -6.97, 95.01 -12.99 M68.33 0.22 C77.4 -3.89, 85.54 -9.98, 94.23 -14.91" stroke="#000000" stroke-width="1" fill="none"></path></g><g transform="translate(226.84231084854355 120.3894697544921) rotate(0 47.14652676559513 -7.254517245774721)"><path d="M63.51 -17.98 C71.86 -18.34, 80.49 -16.05, 95.01 -12.99 M64.75 -19.99 C74.94 -17.64, 84.22 -17.3, 94.23 -14.91" stroke="#000000" stroke-width="1" fill="none"></path></g></g><g transform="translate(304.4375 167.48828125) rotate(0 28 10)"><text x="0" y="14" font-family="Virgil, Segoe UI Emoji" font-size="16px" fill="#000000" text-anchor="start" style="white-space: pre;" direction="ltr">options</text></g><g stroke-linecap="round"><g transform="translate(228.86328125 151.01171875) rotate(0 35.36326808817685 14.646937855016446)"><path d="M-0.92 -0.51 C11.01 4.26, 59.46 24.63, 71.65 29.59 M0.79 -1.82 C12.52 3.67, 58.68 25.74, 70.47 31.11" stroke="#000000" stroke-width="1" fill="none"></path></g><g transform="translate(228.86328125 151.01171875) rotate(0 35.36326808817685 14.646937855016446)"><path d="M39.74 27.7 C49.65 29.66, 58.21 30.11, 70.69 31.87 M41.11 29.34 C47.46 28.58, 53.08 30.74, 69.78 31.39" stroke="#000000" stroke-width="1" fill="none"></path></g><g transform="translate(228.86328125 151.01171875) rotate(0 35.36326808817685 14.646937855016446)"><path d="M48.45 9.12 C55.86 16.66, 61.77 22.77, 70.69 31.87 M49.82 10.76 C54.16 13.93, 57.91 20.08, 69.78 31.39" stroke="#000000" stroke-width="1" fill="none"></path></g></g><g stroke-linecap="round"><g transform="translate(368.734375 176.8203125) rotate(0 47.37053031437097 1.5544222654402233)"><path d="M-0.27 0.15 C15.52 0.57, 79.18 2.2, 95.01 2.96 M1.79 -0.82 C17.36 -0.33, 77.92 3.34, 93.82 3.93" stroke="#000000" stroke-width="1" fill="none"></path></g><g transform="translate(368.734375 176.8203125) rotate(0 47.37053031437097 1.5544222654402233)"><path d="M65.41 12.02 C72.57 8.71, 84.73 8.59, 95.36 3.01 M65.22 12.02 C74.97 9.9, 84.82 5.76, 93.48 3.79" stroke="#000000" stroke-width="1" fill="none"></path></g><g transform="translate(368.734375 176.8203125) rotate(0 47.37053031437097 1.5544222654402233)"><path d="M66.43 -8.48 C73.34 -5.17, 85.17 1.33, 95.36 3.01 M66.24 -8.48 C75.76 -3.25, 85.25 -0.05, 93.48 3.79" stroke="#000000" stroke-width="1" fill="none"></path></g></g><g transform="translate(474.79296875 169.125) rotate(0 36.5 10)"><text x="0" y="14" font-family="Virgil, Segoe UI Emoji" font-size="16px" fill="#000000" text-anchor="start" style="white-space: pre;" direction="ltr">scheduler</text></g></svg>